<svg version="1.1" xmlns="http://www.w3.org/2000/svg" xmlns:xlink="http://www.w3.org/1999/xlink" width="699" height="627"><defs/><g><text fill="#eeeeee" stroke="none" font-family="Arial" font-size="24px" font-style="normal" font-weight="normal" text-decoration="none" x="0" y="0">UNREGISTERED</text><text fill="#eeeeee" stroke="none" font-family="Arial" font-size="24px" font-style="normal" font-weight="normal" text-decoration="none" x="0" y="30">UNREGISTERED</text><text fill="#eeeeee" stroke="none" font-family="Arial" font-size="24px" font-style="normal" font-weight="normal" text-decoration="none" x="0" y="60">UNREGISTERED</text><text fill="#eeeeee" stroke="none" font-family="Arial" font-size="24px" font-style="normal" font-weight="normal" text-decoration="none" x="0" y="90">UNREGISTERED</text><text fill="#eeeeee" stroke="none" font-family="Arial" font-size="24px" font-style="normal" font-weight="normal" text-decoration="none" x="0" y="120">UNREGISTERED</text><text fill="#eeeeee" stroke="none" font-family="Arial" font-size="24px" font-style="normal" font-weight="normal" text-decoration="none" x="0" y="150">UNREGISTERED</text><text fill="#eeeeee" stroke="none" font-family="Arial" font-size="24px" font-style="normal" font-weight="normal" text-decoration="none" x="0" y="180">UNREGISTERED</text><text fill="#eeeeee" stroke="none" font-family="Arial" font-size="24px" font-style="normal" font-weight="normal" text-decoration="none" x="0" y="210">UNREGISTERED</text><text fill="#eeeeee" stroke="none" font-family="Arial" font-size="24px" font-style="normal" font-weight="normal" text-decoration="none" x="0" y="240">UNREGISTERED</text><text fill="#eeeeee" stroke="none" font-family="Arial" font-size="24px" font-style="normal" font-weight="normal" text-decoration="none" x="0" y="270">UNREGISTERED</text><text fill="#eeeeee" stroke="none" font-family="Arial" font-size="24px" font-style="normal" font-weight="normal" text-decoration="none" x="0" y="300">UNREGISTERED</text><text fill="#eeeeee" stroke="none" font-family="Arial" font-size="24px" font-style="normal" font-weight="normal" text-decoration="none" x="0" y="330">UNREGISTERED</text><text fill="#eeeeee" stroke="none" font-family="Arial" font-size="24px" font-style="normal" font-weight="normal" text-decoration="none" x="0" y="360">UNREGISTERED</text><text fill="#eeeeee" stroke="none" font-family="Arial" font-size="24px" font-style="normal" font-weight="normal" text-decoration="none" x="0" y="390">UNREGISTERED</text><text fill="#eeeeee" stroke="none" font-family="Arial" font-size="24px" font-style="normal" font-weight="normal" text-decoration="none" x="0" y="420">UNREGISTERED</text><text fill="#eeeeee" stroke="none" font-family="Arial" font-size="24px" font-style="normal" font-weight="normal" text-decoration="none" x="0" y="450">UNREGISTERED</text><text fill="#eeeeee" stroke="none" font-family="Arial" font-size="24px" font-style="normal" font-weight="normal" text-decoration="none" x="0" y="480">UNREGISTERED</text><text fill="#eeeeee" stroke="none" font-family="Arial" font-size="24px" font-style="normal" font-weight="normal" text-decoration="none" x="0" y="510">UNREGISTERED</text><text fill="#eeeeee" stroke="none" font-family="Arial" font-size="24px" font-style="normal" font-weight="normal" text-decoration="none" x="0" y="540">UNREGISTERED</text><text fill="#eeeeee" stroke="none" font-family="Arial" font-size="24px" font-style="normal" font-weight="normal" text-decoration="none" x="0" y="570">UNREGISTERED</text><text fill="#eeeeee" stroke="none" font-family="Arial" font-size="24px" font-style="normal" font-weight="normal" text-decoration="none" x="0" y="600">UNREGISTERED</text><text fill="#eeeeee" stroke="none" font-family="Arial" font-size="24px" font-style="normal" font-weight="normal" text-decoration="none" x="200" y="0">UNREGISTERED</text><text fill="#eeeeee" stroke="none" font-family="Arial" font-size="24px" font-style="normal" font-weight="normal" text-decoration="none" x="200" y="30">UNREGISTERED</text><text fill="#eeeeee" stroke="none" font-family="Arial" font-size="24px" font-style="normal" font-weight="normal" text-decoration="none" x="200" y="60">UNREGISTERED</text><text fill="#eeeeee" stroke="none" font-family="Arial" font-size="24px" font-style="normal" font-weight="normal" text-decoration="none" x="200" y="90">UNREGISTERED</text><text fill="#eeeeee" stroke="none" font-family="Arial" font-size="24px" font-style="normal" font-weight="normal" text-decoration="none" x="200" y="120">UNREGISTERED</text><text fill="#eeeeee" stroke="none" font-family="Arial" font-size="24px" font-style="normal" font-weight="normal" text-decoration="none" x="200" y="150">UNREGISTERED</text><text fill="#eeeeee" stroke="none" font-family="Arial" font-size="24px" font-style="normal" font-weight="normal" text-decoration="none" x="200" y="180">UNREGISTERED</text><text fill="#eeeeee" stroke="none" font-family="Arial" font-size="24px" font-style="normal" font-weight="normal" text-decoration="none" x="200" y="210">UNREGISTERED</text><text fill="#eeeeee" stroke="none" font-family="Arial" font-size="24px" font-style="normal" font-weight="normal" text-decoration="none" x="200" y="240">UNREGISTERED</text><text fill="#eeeeee" stroke="none" font-family="Arial" font-size="24px" font-style="normal" font-weight="normal" text-decoration="none" x="200" y="270">UNREGISTERED</text><text fill="#eeeeee" stroke="none" font-family="Arial" font-size="24px" font-style="normal" font-weight="normal" text-decoration="none" x="200" y="300">UNREGISTERED</text><text fill="#eeeeee" stroke="none" font-family="Arial" font-size="24px" font-style="normal" font-weight="normal" text-decoration="none" x="200" y="330">UNREGISTERED</text><text fill="#eeeeee" stroke="none" font-family="Arial" font-size="24px" font-style="normal" font-weight="normal" text-decoration="none" x="200" y="360">UNREGISTERED</text><text fill="#eeeeee" stroke="none" font-family="Arial" font-size="24px" font-style="normal" font-weight="normal" text-decoration="none" x="200" y="390">UNREGISTERED</text><text fill="#eeeeee" stroke="none" font-family="Arial" font-size="24px" font-style="normal" font-weight="normal" text-decoration="none" x="200" y="420">UNREGISTERED</text><text fill="#eeeeee" stroke="none" font-family="Arial" font-size="24px" font-style="normal" font-weight="normal" text-decoration="none" x="200" y="450">UNREGISTERED</text><text fill="#eeeeee" stroke="none" font-family="Arial" font-size="24px" font-style="normal" font-weight="normal" text-decoration="none" x="200" y="480">UNREGISTERED</text><text fill="#eeeeee" stroke="none" font-family="Arial" font-size="24px" font-style="normal" font-weight="normal" text-decoration="none" x="200" y="510">UNREGISTERED</text><text fill="#eeeeee" stroke="none" font-family="Arial" font-size="24px" font-style="normal" font-weight="normal" text-decoration="none" x="200" y="540">UNREGISTERED</text><text fill="#eeeeee" stroke="none" font-family="Arial" font-size="24px" font-style="normal" font-weight="normal" text-decoration="none" x="200" y="570">UNREGISTERED</text><text fill="#eeeeee" stroke="none" font-family="Arial" font-size="24px" font-style="normal" font-weight="normal" text-decoration="none" x="200" y="600">UNREGISTERED</text><text fill="#eeeeee" stroke="none" font-family="Arial" font-size="24px" font-style="normal" font-weight="normal" text-decoration="none" x="400" y="0">UNREGISTERED</text><text fill="#eeeeee" stroke="none" font-family="Arial" font-size="24px" font-style="normal" font-weight="normal" text-decoration="none" x="400" y="30">UNREGISTERED</text><text fill="#eeeeee" stroke="none" font-family="Arial" font-size="24px" font-style="normal" font-weight="normal" text-decoration="none" x="400" y="60">UNREGISTERED</text><text fill="#eeeeee" stroke="none" font-family="Arial" font-size="24px" font-style="normal" font-weight="normal" text-decoration="none" x="400" y="90">UNREGISTERED</text><text fill="#eeeeee" stroke="none" font-family="Arial" font-size="24px" font-style="normal" font-weight="normal" text-decoration="none" x="400" y="120">UNREGISTERED</text><text fill="#eeeeee" stroke="none" font-family="Arial" font-size="24px" font-style="normal" font-weight="normal" text-decoration="none" x="400" y="150">UNREGISTERED</text><text fill="#eeeeee" stroke="none" font-family="Arial" font-size="24px" font-style="normal" font-weight="normal" text-decoration="none" x="400" y="180">UNREGISTERED</text><text fill="#eeeeee" stroke="none" font-family="Arial" font-size="24px" font-style="normal" font-weight="normal" text-decoration="none" x="400" y="210">UNREGISTERED</text><text fill="#eeeeee" stroke="none" font-family="Arial" font-size="24px" font-style="normal" font-weight="normal" text-decoration="none" x="400" y="240">UNREGISTERED</text><text fill="#eeeeee" stroke="none" font-family="Arial" font-size="24px" font-style="normal" font-weight="normal" text-decoration="none" x="400" y="270">UNREGISTERED</text><text fill="#eeeeee" stroke="none" font-family="Arial" font-size="24px" font-style="normal" font-weight="normal" text-decoration="none" x="400" y="300">UNREGISTERED</text><text fill="#eeeeee" stroke="none" font-family="Arial" font-size="24px" font-style="normal" font-weight="normal" text-decoration="none" x="400" y="330">UNREGISTERED</text><text fill="#eeeeee" stroke="none" font-family="Arial" font-size="24px" font-style="normal" font-weight="normal" text-decoration="none" x="400" y="360">UNREGISTERED</text><text fill="#eeeeee" stroke="none" font-family="Arial" font-size="24px" font-style="normal" font-weight="normal" text-decoration="none" x="400" y="390">UNREGISTERED</text><text fill="#eeeeee" stroke="none" font-family="Arial" font-size="24px" font-style="normal" font-weight="normal" text-decoration="none" x="400" y="420">UNREGISTERED</text><text fill="#eeeeee" stroke="none" font-family="Arial" font-size="24px" font-style="normal" font-weight="normal" text-decoration="none" x="400" y="450">UNREGISTERED</text><text fill="#eeeeee" stroke="none" font-family="Arial" font-size="24px" font-style="normal" font-weight="normal" text-decoration="none" x="400" y="480">UNREGISTERED</text><text fill="#eeeeee" stroke="none" font-family="Arial" font-size="24px" font-style="normal" font-weight="normal" text-decoration="none" x="400" y="510">UNREGISTERED</text><text fill="#eeeeee" stroke="none" font-family="Arial" font-size="24px" font-style="normal" font-weight="normal" text-decoration="none" x="400" y="540">UNREGISTERED</text><text fill="#eeeeee" stroke="none" font-family="Arial" font-size="24px" font-style="normal" font-weight="normal" text-decoration="none" x="400" y="570">UNREGISTERED</text><text fill="#eeeeee" stroke="none" font-family="Arial" font-size="24px" font-style="normal" font-weight="normal" text-decoration="none" x="400" y="600">UNREGISTERED</text><text fill="#eeeeee" stroke="none" font-family="Arial" font-size="24px" font-style="normal" font-weight="normal" text-decoration="none" x="600" y="0">UNREGISTERED</text><text fill="#eeeeee" stroke="none" font-family="Arial" font-size="24px" font-style="normal" font-weight="normal" text-decoration="none" x="600" y="30">UNREGISTERED</text><text fill="#eeeeee" stroke="none" font-family="Arial" font-size="24px" font-style="normal" font-weight="normal" text-decoration="none" x="600" y="60">UNREGISTERED</text><text fill="#eeeeee" stroke="none" font-family="Arial" font-size="24px" font-style="normal" font-weight="normal" text-decoration="none" x="600" y="90">UNREGISTERED</text><text fill="#eeeeee" stroke="none" font-family="Arial" font-size="24px" font-style="normal" font-weight="normal" text-decoration="none" x="600" y="120">UNREGISTERED</text><text fill="#eeeeee" stroke="none" font-family="Arial" font-size="24px" font-style="normal" font-weight="normal" text-decoration="none" x="600" y="150">UNREGISTERED</text><text fill="#eeeeee" stroke="none" font-family="Arial" font-size="24px" font-style="normal" font-weight="normal" text-decoration="none" x="600" y="180">UNREGISTERED</text><text fill="#eeeeee" stroke="none" font-family="Arial" font-size="24px" font-style="normal" font-weight="normal" text-decoration="none" x="600" y="210">UNREGISTERED</text><text fill="#eeeeee" stroke="none" font-family="Arial" font-size="24px" font-style="normal" font-weight="normal" text-decoration="none" x="600" y="240">UNREGISTERED</text><text fill="#eeeeee" stroke="none" font-family="Arial" font-size="24px" font-style="normal" font-weight="normal" text-decoration="none" x="600" y="270">UNREGISTERED</text><text fill="#eeeeee" stroke="none" font-family="Arial" font-size="24px" font-style="normal" font-weight="normal" text-decoration="none" x="600" y="300">UNREGISTERED</text><text fill="#eeeeee" stroke="none" font-family="Arial" font-size="24px" font-style="normal" font-weight="normal" text-decoration="none" x="600" y="330">UNREGISTERED</text><text fill="#eeeeee" stroke="none" font-family="Arial" font-size="24px" font-style="normal" font-weight="normal" text-decoration="none" x="600" y="360">UNREGISTERED</text><text fill="#eeeeee" stroke="none" font-family="Arial" font-size="24px" font-style="normal" font-weight="normal" text-decoration="none" x="600" y="390">UNREGISTERED</text><text fill="#eeeeee" stroke="none" font-family="Arial" font-size="24px" font-style="normal" font-weight="normal" text-decoration="none" x="600" y="420">UNREGISTERED</text><text fill="#eeeeee" stroke="none" font-family="Arial" font-size="24px" font-style="normal" font-weight="normal" text-decoration="none" x="600" y="450">UNREGISTERED</text><text fill="#eeeeee" stroke="none" font-family="Arial" font-size="24px" font-style="normal" font-weight="normal" text-decoration="none" x="600" y="480">UNREGISTERED</text><text fill="#eeeeee" stroke="none" font-family="Arial" font-size="24px" font-style="normal" font-weight="normal" text-decoration="none" x="600" y="510">UNREGISTERED</text><text fill="#eeeeee" stroke="none" font-family="Arial" font-size="24px" font-style="normal" font-weight="normal" text-decoration="none" x="600" y="540">UNREGISTERED</text><text fill="#eeeeee" stroke="none" font-family="Arial" font-size="24px" font-style="normal" font-weight="normal" text-decoration="none" x="600" y="570">UNREGISTERED</text><text fill="#eeeeee" stroke="none" font-family="Arial" font-size="24px" font-style="normal" font-weight="normal" text-decoration="none" x="600" y="600">UNREGISTERED</text><g transform="translate(2,-86) scale(1,1)"><rect fill="#C0C0C0" stroke="none" x="271" y="103" width="423" height="607" opacity="0.2"/></g><g transform="translate(2,-86) scale(1,1)"><rect fill="#ffffff" stroke="none" x="264" y="96" width="423" height="607"/></g><g transform="translate(2,-86) scale(1,1)"><path fill="none" stroke="#000000" d="M 264 96 L 687 96 L 687 703 L 264 703 L 264 96 Z Z" stroke-miterlimit="10"/></g><g transform="translate(2,-86) scale(1,1)"><g><path fill="none" stroke="none"/><text fill="#000000" stroke="none" font-family="Arial" font-size="13px" font-style="normal" font-weight="bold" text-decoration="none" x="404.32373046875" y="115.5">Command Line Interface</text></g></g><g transform="translate(2,-86) scale(1,1)"><path fill="#ffffff" stroke="none" d="M 139.25114719460228 305.68 C 139.25114719460228 300.886167936 143.13698951954774 297 147.930419921875 297 C 152.72385032420226 297 156.60969264914772 300.886167936 156.60969264914772 305.68 C 156.60969264914772 310.473832064 152.72385032420226 314.36 147.930419921875 314.36 C 143.13698951954774 314.36 139.25114719460228 310.473832064 139.25114719460228 305.68 Z"/></g><g transform="translate(2,-86) scale(1,1)"><path fill="none" stroke="#000000" d="M 139.25114719460228 305.68 C 139.25114719460228 300.886167936 143.13698951954774 297 147.930419921875 297 C 152.72385032420226 297 156.60969264914772 300.886167936 156.60969264914772 305.68 C 156.60969264914772 310.473832064 152.72385032420226 314.36 147.930419921875 314.36 C 143.13698951954774 314.36 139.25114719460228 310.473832064 139.25114719460228 305.68 Z" stroke-miterlimit="10"/></g><g transform="translate(2,-86) scale(1,1)"><path fill="none" stroke="#000000" d="M 147.930419921875 314.36 L 147.930419921875 331.64" stroke-miterlimit="10"/></g><g transform="translate(2,-86) scale(1,1)"><path fill="none" stroke="#000000" d="M 138.74060174005683 320.84 L 157.12023810369317 320.84" stroke-miterlimit="10"/></g><g transform="translate(2,-86) scale(1,1)"><path fill="none" stroke="#000000" d="M 147.930419921875 331.64 L 135.16678355823865 349" stroke-miterlimit="10"/></g><g transform="translate(2,-86) scale(1,1)"><path fill="none" stroke="#000000" d="M 147.930419921875 331.64 L 160.69405628551135 349" stroke-miterlimit="10"/></g><g transform="translate(2,-86) scale(1,1)"><g><path fill="none" stroke="none"/><text fill="#000000" stroke="none" font-family="Arial" font-size="13px" font-style="normal" font-weight="bold" text-decoration="none" x="118.302734375" y="369.5">Developer</text></g></g><g transform="translate(2,-86) scale(1,1)"><path fill="#ffffff" stroke="none" d="M 8 176 L 109 176 L 119 186 L 119 277 L 8 277 L 8 176"/></g><g transform="translate(2,-86) scale(1,1)"><path fill="none" stroke="#000000" d="M 8 176 L 109 176 L 119 186 L 119 277 L 8 277 L 8 176 L 8 176" stroke-miterlimit="10"/></g><g transform="translate(2,-86) scale(1,1)"><path fill="none" stroke="#000000" d="M 109 176 L 109 186 L 119 186 L 109 176" stroke-miterlimit="10"/></g><g transform="translate(2,-86) scale(1,1)"><g><path fill="none" stroke="none"/><text fill="#000000" stroke="none" font-family="Arial" font-size="13px" font-style="normal" font-weight="normal" text-decoration="none" x="13" y="194">Developer here</text><text fill="#000000" stroke="none" font-family="Arial" font-size="13px" font-style="normal" font-weight="normal" text-decoration="none" x="13" y="207">refers to the</text><text fill="#000000" stroke="none" font-family="Arial" font-size="13px" font-style="normal" font-weight="normal" text-decoration="none" x="13" y="220">person that</text><text fill="#000000" stroke="none" font-family="Arial" font-size="13px" font-style="normal" font-weight="normal" text-decoration="none" x="13" y="233">writes code that</text><text fill="#000000" stroke="none" font-family="Arial" font-size="13px" font-style="normal" font-weight="normal" text-decoration="none" x="13" y="246">is interpreted by</text><text fill="#000000" stroke="none" font-family="Arial" font-size="13px" font-style="normal" font-weight="normal" text-decoration="none" x="13" y="259">the websocket</text><text fill="#000000" stroke="none" font-family="Arial" font-size="13px" font-style="normal" font-weight="normal" text-decoration="none" x="13" y="272">framework.</text></g></g><g transform="translate(2,-86) scale(1,1)"><path fill="#C0C0C0" stroke="none" d="M 367 199 C 367 181.3268864 417.1441024 167 479 167 C 540.8558976 167 591 181.3268864 591 199 C 591 216.6731136 540.8558976 231 479 231 C 417.1441024 231 367 216.6731136 367 199 Z" opacity="0.2"/></g><g transform="translate(2,-86) scale(1,1)"><path fill="#ffffff" stroke="none" d="M 360 192 C 360 174.3268864 410.1441024 160 472 160 C 533.8558976 160 584 174.3268864 584 192 C 584 209.6731136 533.8558976 224 472 224 C 410.1441024 224 360 209.6731136 360 192 Z"/></g><g transform="translate(2,-86) scale(1,1)"><path fill="none" stroke="#000000" d="M 360 192 C 360 174.3268864 410.1441024 160 472 160 C 533.8558976 160 584 174.3268864 584 192 C 584 209.6731136 533.8558976 224 472 224 C 410.1441024 224 360 209.6731136 360 192 Z" stroke-miterlimit="10"/></g><g transform="translate(2,-86) scale(1,1)"><g><path fill="none" stroke="none"/><text fill="#000000" stroke="none" font-family="Arial" font-size="13px" font-style="normal" font-weight="bold" text-decoration="none" x="422.86279296875" y="192.5">Print all available</text><text fill="#000000" stroke="none" font-family="Arial" font-size="13px" font-style="normal" font-weight="bold" text-decoration="none" x="440.2109375" y="205.5">commands</text></g></g><g transform="translate(2,-86) scale(1,1)"><path fill="#C0C0C0" stroke="none" d="M 359 401 C 359 386.6405952 410.93496319999997 375 475 375 C 539.0650368 375 591 386.6405952 591 401 C 591 415.3594048 539.0650368 427 475 427 C 410.93496319999997 427 359 415.3594048 359 401 Z" opacity="0.2"/></g><g transform="translate(2,-86) scale(1,1)"><path fill="#ffffff" stroke="none" d="M 352 394 C 352 379.6405952 403.93496319999997 368 468 368 C 532.0650368 368 584 379.6405952 584 394 C 584 408.3594048 532.0650368 420 468 420 C 403.93496319999997 420 352 408.3594048 352 394 Z"/></g><g transform="translate(2,-86) scale(1,1)"><path fill="none" stroke="#000000" d="M 352 394 C 352 379.6405952 403.93496319999997 368 468 368 C 532.0650368 368 584 379.6405952 584 394 C 584 408.3594048 532.0650368 420 468 420 C 403.93496319999997 420 352 408.3594048 352 394 Z" stroke-miterlimit="10"/></g><g transform="translate(2,-86) scale(1,1)"><g><path fill="none" stroke="none"/><text fill="#000000" stroke="none" font-family="Arial" font-size="13px" font-style="normal" font-weight="bold" text-decoration="none" x="406.20556640625" y="394.5">Change configuration</text><text fill="#000000" stroke="none" font-family="Arial" font-size="13px" font-style="normal" font-weight="bold" text-decoration="none" x="452.4609375" y="407.5">value</text></g></g><g transform="translate(2,-86) scale(1,1)"><path fill="#C0C0C0" stroke="none" d="M 359 505 C 359 490.6405952 409.1441024 479 471 479 C 532.8558976 479 583 490.6405952 583 505 C 583 519.3594048 532.8558976 531 471 531 C 409.1441024 531 359 519.3594048 359 505 Z" opacity="0.2"/></g><g transform="translate(2,-86) scale(1,1)"><path fill="#ffffff" stroke="none" d="M 352 498 C 352 483.6405952 402.1441024 472 464 472 C 525.8558976 472 576 483.6405952 576 498 C 576 512.3594048 525.8558976 524 464 524 C 402.1441024 524 352 512.3594048 352 498 Z"/></g><g transform="translate(2,-86) scale(1,1)"><path fill="none" stroke="#000000" d="M 352 498 C 352 483.6405952 402.1441024 472 464 472 C 525.8558976 472 576 483.6405952 576 498 C 576 512.3594048 525.8558976 524 464 524 C 402.1441024 524 352 512.3594048 352 498 Z" stroke-miterlimit="10"/></g><g transform="translate(2,-86) scale(1,1)"><g><path fill="none" stroke="none"/><text fill="#000000" stroke="none" font-family="Arial" font-size="13px" font-style="normal" font-weight="bold" text-decoration="none" x="403.6591796875" y="498.5">Generate module file</text><text fill="#000000" stroke="none" font-family="Arial" font-size="13px" font-style="normal" font-weight="bold" text-decoration="none" x="417.38916015625" y="511.5">for development</text></g></g><g transform="translate(2,-86) scale(1,1)"><path fill="#C0C0C0" stroke="none" d="M 367 305 C 367 290.6405952 417.1441024 279 479 279 C 540.8558976 279 591 290.6405952 591 305 C 591 319.3594048 540.8558976 331 479 331 C 417.1441024 331 367 319.3594048 367 305 Z" opacity="0.2"/></g><g transform="translate(2,-86) scale(1,1)"><path fill="#ffffff" stroke="none" d="M 360 298 C 360 283.6405952 410.1441024 272 472 272 C 533.8558976 272 584 283.6405952 584 298 C 584 312.3594048 533.8558976 324 472 324 C 410.1441024 324 360 312.3594048 360 298 Z"/></g><g transform="translate(2,-86) scale(1,1)"><path fill="none" stroke="#000000" d="M 360 298 C 360 283.6405952 410.1441024 272 472 272 C 533.8558976 272 584 283.6405952 584 298 C 584 312.3594048 533.8558976 324 472 324 C 410.1441024 324 360 312.3594048 360 298 Z" stroke-miterlimit="10"/></g><g transform="translate(2,-86) scale(1,1)"><g><path fill="none" stroke="none"/><text fill="#000000" stroke="none" font-family="Arial" font-size="13px" font-style="normal" font-weight="bold" text-decoration="none" x="413.833251953125" y="298.5">Print help of specific</text><text fill="#000000" stroke="none" font-family="Arial" font-size="13px" font-style="normal" font-weight="bold" text-decoration="none" x="443.4609375" y="311.5">command</text></g></g><g transform="translate(2,-86) scale(1,1)"><path fill="none" stroke="#000000" d="M 185 318 L 397 225" stroke-miterlimit="10"/></g><g transform="translate(2,-86) scale(1,1)"><path fill="none" stroke="#000000" d="M 185 328 Q 352 296 359 296" stroke-miterlimit="10"/></g><g transform="translate(2,-86) scale(1,1)"><path fill="none" stroke="#000000" d="M 185 342 L 351 372" stroke-miterlimit="10"/></g><g transform="translate(2,-86) scale(1,1)"><path fill="none" stroke="#000000" d="M 185 354 L 411 471" stroke-miterlimit="10"/></g></g></svg>