<svg version="1.1" xmlns="http://www.w3.org/2000/svg" xmlns:xlink="http://www.w3.org/1999/xlink" width="717" height="540"><defs/><g><text fill="#eeeeee" stroke="none" font-family="Arial" font-size="24px" font-style="normal" font-weight="normal" text-decoration="none" x="0" y="0">UNREGISTERED</text><text fill="#eeeeee" stroke="none" font-family="Arial" font-size="24px" font-style="normal" font-weight="normal" text-decoration="none" x="0" y="30">UNREGISTERED</text><text fill="#eeeeee" stroke="none" font-family="Arial" font-size="24px" font-style="normal" font-weight="normal" text-decoration="none" x="0" y="60">UNREGISTERED</text><text fill="#eeeeee" stroke="none" font-family="Arial" font-size="24px" font-style="normal" font-weight="normal" text-decoration="none" x="0" y="90">UNREGISTERED</text><text fill="#eeeeee" stroke="none" font-family="Arial" font-size="24px" font-style="normal" font-weight="normal" text-decoration="none" x="0" y="120">UNREGISTERED</text><text fill="#eeeeee" stroke="none" font-family="Arial" font-size="24px" font-style="normal" font-weight="normal" text-decoration="none" x="0" y="150">UNREGISTERED</text><text fill="#eeeeee" stroke="none" font-family="Arial" font-size="24px" font-style="normal" font-weight="normal" text-decoration="none" x="0" y="180">UNREGISTERED</text><text fill="#eeeeee" stroke="none" font-family="Arial" font-size="24px" font-style="normal" font-weight="normal" text-decoration="none" x="0" y="210">UNREGISTERED</text><text fill="#eeeeee" stroke="none" font-family="Arial" font-size="24px" font-style="normal" font-weight="normal" text-decoration="none" x="0" y="240">UNREGISTERED</text><text fill="#eeeeee" stroke="none" font-family="Arial" font-size="24px" font-style="normal" font-weight="normal" text-decoration="none" x="0" y="270">UNREGISTERED</text><text fill="#eeeeee" stroke="none" font-family="Arial" font-size="24px" font-style="normal" font-weight="normal" text-decoration="none" x="0" y="300">UNREGISTERED</text><text fill="#eeeeee" stroke="none" font-family="Arial" font-size="24px" font-style="normal" font-weight="normal" text-decoration="none" x="0" y="330">UNREGISTERED</text><text fill="#eeeeee" stroke="none" font-family="Arial" font-size="24px" font-style="normal" font-weight="normal" text-decoration="none" x="0" y="360">UNREGISTERED</text><text fill="#eeeeee" stroke="none" font-family="Arial" font-size="24px" font-style="normal" font-weight="normal" text-decoration="none" x="0" y="390">UNREGISTERED</text><text fill="#eeeeee" stroke="none" font-family="Arial" font-size="24px" font-style="normal" font-weight="normal" text-decoration="none" x="0" y="420">UNREGISTERED</text><text fill="#eeeeee" stroke="none" font-family="Arial" font-size="24px" font-style="normal" font-weight="normal" text-decoration="none" x="0" y="450">UNREGISTERED</text><text fill="#eeeeee" stroke="none" font-family="Arial" font-size="24px" font-style="normal" font-weight="normal" text-decoration="none" x="0" y="480">UNREGISTERED</text><text fill="#eeeeee" stroke="none" font-family="Arial" font-size="24px" font-style="normal" font-weight="normal" text-decoration="none" x="0" y="510">UNREGISTERED</text><text fill="#eeeeee" stroke="none" font-family="Arial" font-size="24px" font-style="normal" font-weight="normal" text-decoration="none" x="200" y="0">UNREGISTERED</text><text fill="#eeeeee" stroke="none" font-family="Arial" font-size="24px" font-style="normal" font-weight="normal" text-decoration="none" x="200" y="30">UNREGISTERED</text><text fill="#eeeeee" stroke="none" font-family="Arial" font-size="24px" font-style="normal" font-weight="normal" text-decoration="none" x="200" y="60">UNREGISTERED</text><text fill="#eeeeee" stroke="none" font-family="Arial" font-size="24px" font-style="normal" font-weight="normal" text-decoration="none" x="200" y="90">UNREGISTERED</text><text fill="#eeeeee" stroke="none" font-family="Arial" font-size="24px" font-style="normal" font-weight="normal" text-decoration="none" x="200" y="120">UNREGISTERED</text><text fill="#eeeeee" stroke="none" font-family="Arial" font-size="24px" font-style="normal" font-weight="normal" text-decoration="none" x="200" y="150">UNREGISTERED</text><text fill="#eeeeee" stroke="none" font-family="Arial" font-size="24px" font-style="normal" font-weight="normal" text-decoration="none" x="200" y="180">UNREGISTERED</text><text fill="#eeeeee" stroke="none" font-family="Arial" font-size="24px" font-style="normal" font-weight="normal" text-decoration="none" x="200" y="210">UNREGISTERED</text><text fill="#eeeeee" stroke="none" font-family="Arial" font-size="24px" font-style="normal" font-weight="normal" text-decoration="none" x="200" y="240">UNREGISTERED</text><text fill="#eeeeee" stroke="none" font-family="Arial" font-size="24px" font-style="normal" font-weight="normal" text-decoration="none" x="200" y="270">UNREGISTERED</text><text fill="#eeeeee" stroke="none" font-family="Arial" font-size="24px" font-style="normal" font-weight="normal" text-decoration="none" x="200" y="300">UNREGISTERED</text><text fill="#eeeeee" stroke="none" font-family="Arial" font-size="24px" font-style="normal" font-weight="normal" text-decoration="none" x="200" y="330">UNREGISTERED</text><text fill="#eeeeee" stroke="none" font-family="Arial" font-size="24px" font-style="normal" font-weight="normal" text-decoration="none" x="200" y="360">UNREGISTERED</text><text fill="#eeeeee" stroke="none" font-family="Arial" font-size="24px" font-style="normal" font-weight="normal" text-decoration="none" x="200" y="390">UNREGISTERED</text><text fill="#eeeeee" stroke="none" font-family="Arial" font-size="24px" font-style="normal" font-weight="normal" text-decoration="none" x="200" y="420">UNREGISTERED</text><text fill="#eeeeee" stroke="none" font-family="Arial" font-size="24px" font-style="normal" font-weight="normal" text-decoration="none" x="200" y="450">UNREGISTERED</text><text fill="#eeeeee" stroke="none" font-family="Arial" font-size="24px" font-style="normal" font-weight="normal" text-decoration="none" x="200" y="480">UNREGISTERED</text><text fill="#eeeeee" stroke="none" font-family="Arial" font-size="24px" font-style="normal" font-weight="normal" text-decoration="none" x="200" y="510">UNREGISTERED</text><text fill="#eeeeee" stroke="none" font-family="Arial" font-size="24px" font-style="normal" font-weight="normal" text-decoration="none" x="400" y="0">UNREGISTERED</text><text fill="#eeeeee" stroke="none" font-family="Arial" font-size="24px" font-style="normal" font-weight="normal" text-decoration="none" x="400" y="30">UNREGISTERED</text><text fill="#eeeeee" stroke="none" font-family="Arial" font-size="24px" font-style="normal" font-weight="normal" text-decoration="none" x="400" y="60">UNREGISTERED</text><text fill="#eeeeee" stroke="none" font-family="Arial" font-size="24px" font-style="normal" font-weight="normal" text-decoration="none" x="400" y="90">UNREGISTERED</text><text fill="#eeeeee" stroke="none" font-family="Arial" font-size="24px" font-style="normal" font-weight="normal" text-decoration="none" x="400" y="120">UNREGISTERED</text><text fill="#eeeeee" stroke="none" font-family="Arial" font-size="24px" font-style="normal" font-weight="normal" text-decoration="none" x="400" y="150">UNREGISTERED</text><text fill="#eeeeee" stroke="none" font-family="Arial" font-size="24px" font-style="normal" font-weight="normal" text-decoration="none" x="400" y="180">UNREGISTERED</text><text fill="#eeeeee" stroke="none" font-family="Arial" font-size="24px" font-style="normal" font-weight="normal" text-decoration="none" x="400" y="210">UNREGISTERED</text><text fill="#eeeeee" stroke="none" font-family="Arial" font-size="24px" font-style="normal" font-weight="normal" text-decoration="none" x="400" y="240">UNREGISTERED</text><text fill="#eeeeee" stroke="none" font-family="Arial" font-size="24px" font-style="normal" font-weight="normal" text-decoration="none" x="400" y="270">UNREGISTERED</text><text fill="#eeeeee" stroke="none" font-family="Arial" font-size="24px" font-style="normal" font-weight="normal" text-decoration="none" x="400" y="300">UNREGISTERED</text><text fill="#eeeeee" stroke="none" font-family="Arial" font-size="24px" font-style="normal" font-weight="normal" text-decoration="none" x="400" y="330">UNREGISTERED</text><text fill="#eeeeee" stroke="none" font-family="Arial" font-size="24px" font-style="normal" font-weight="normal" text-decoration="none" x="400" y="360">UNREGISTERED</text><text fill="#eeeeee" stroke="none" font-family="Arial" font-size="24px" font-style="normal" font-weight="normal" text-decoration="none" x="400" y="390">UNREGISTERED</text><text fill="#eeeeee" stroke="none" font-family="Arial" font-size="24px" font-style="normal" font-weight="normal" text-decoration="none" x="400" y="420">UNREGISTERED</text><text fill="#eeeeee" stroke="none" font-family="Arial" font-size="24px" font-style="normal" font-weight="normal" text-decoration="none" x="400" y="450">UNREGISTERED</text><text fill="#eeeeee" stroke="none" font-family="Arial" font-size="24px" font-style="normal" font-weight="normal" text-decoration="none" x="400" y="480">UNREGISTERED</text><text fill="#eeeeee" stroke="none" font-family="Arial" font-size="24px" font-style="normal" font-weight="normal" text-decoration="none" x="400" y="510">UNREGISTERED</text><text fill="#eeeeee" stroke="none" font-family="Arial" font-size="24px" font-style="normal" font-weight="normal" text-decoration="none" x="600" y="0">UNREGISTERED</text><text fill="#eeeeee" stroke="none" font-family="Arial" font-size="24px" font-style="normal" font-weight="normal" text-decoration="none" x="600" y="30">UNREGISTERED</text><text fill="#eeeeee" stroke="none" font-family="Arial" font-size="24px" font-style="normal" font-weight="normal" text-decoration="none" x="600" y="60">UNREGISTERED</text><text fill="#eeeeee" stroke="none" font-family="Arial" font-size="24px" font-style="normal" font-weight="normal" text-decoration="none" x="600" y="90">UNREGISTERED</text><text fill="#eeeeee" stroke="none" font-family="Arial" font-size="24px" font-style="normal" font-weight="normal" text-decoration="none" x="600" y="120">UNREGISTERED</text><text fill="#eeeeee" stroke="none" font-family="Arial" font-size="24px" font-style="normal" font-weight="normal" text-decoration="none" x="600" y="150">UNREGISTERED</text><text fill="#eeeeee" stroke="none" font-family="Arial" font-size="24px" font-style="normal" font-weight="normal" text-decoration="none" x="600" y="180">UNREGISTERED</text><text fill="#eeeeee" stroke="none" font-family="Arial" font-size="24px" font-style="normal" font-weight="normal" text-decoration="none" x="600" y="210">UNREGISTERED</text><text fill="#eeeeee" stroke="none" font-family="Arial" font-size="24px" font-style="normal" font-weight="normal" text-decoration="none" x="600" y="240">UNREGISTERED</text><text fill="#eeeeee" stroke="none" font-family="Arial" font-size="24px" font-style="normal" font-weight="normal" text-decoration="none" x="600" y="270">UNREGISTERED</text><text fill="#eeeeee" stroke="none" font-family="Arial" font-size="24px" font-style="normal" font-weight="normal" text-decoration="none" x="600" y="300">UNREGISTERED</text><text fill="#eeeeee" stroke="none" font-family="Arial" font-size="24px" font-style="normal" font-weight="normal" text-decoration="none" x="600" y="330">UNREGISTERED</text><text fill="#eeeeee" stroke="none" font-family="Arial" font-size="24px" font-style="normal" font-weight="normal" text-decoration="none" x="600" y="360">UNREGISTERED</text><text fill="#eeeeee" stroke="none" font-family="Arial" font-size="24px" font-style="normal" font-weight="normal" text-decoration="none" x="600" y="390">UNREGISTERED</text><text fill="#eeeeee" stroke="none" font-family="Arial" font-size="24px" font-style="normal" font-weight="normal" text-decoration="none" x="600" y="420">UNREGISTERED</text><text fill="#eeeeee" stroke="none" font-family="Arial" font-size="24px" font-style="normal" font-weight="normal" text-decoration="none" x="600" y="450">UNREGISTERED</text><text fill="#eeeeee" stroke="none" font-family="Arial" font-size="24px" font-style="normal" font-weight="normal" text-decoration="none" x="600" y="480">UNREGISTERED</text><text fill="#eeeeee" stroke="none" font-family="Arial" font-size="24px" font-style="normal" font-weight="normal" text-decoration="none" x="600" y="510">UNREGISTERED</text><g transform="translate(-142,-278) scale(1,1)"><path fill="none" stroke="#000000" d="M 170 496 L 606 496 Q 616 496 616 506 L 616 798 Q 616 808 606 808 L 170 808 Q 160 808 160 798 L 160 506 Q 160 496 170 496 Z" stroke-miterlimit="10" stroke-dasharray="3"/></g><g transform="translate(-142,-278) scale(1,1)"><path fill="#C0C0C0" stroke="none" d="M 159 320.5 C 159 315.2532944 163.2532944 311 168.5 311 C 173.7467056 311 178 315.2532944 178 320.5 C 178 325.7467056 173.7467056 330 168.5 330 C 163.2532944 330 159 325.7467056 159 320.5 Z" opacity="0.2"/></g><g transform="translate(-142,-278) scale(1,1)"><path fill="#000000" stroke="none" d="M 152 313.5 C 152 308.2532944 156.2532944 304 161.5 304 C 166.7467056 304 171 308.2532944 171 313.5 C 171 318.7467056 166.7467056 323 161.5 323 C 156.2532944 323 152 318.7467056 152 313.5 Z"/></g><g transform="translate(-142,-278) scale(1,1)"><path fill="#C0C0C0" stroke="none" d="M 297 295 L 421 295 Q 431 295 431 305 L 431 338 Q 431 348 421 348 L 297 348 Q 287 348 287 338 L 287 305 Q 287 295 297 295 Z" opacity="0.2"/></g><g transform="translate(-142,-278) scale(1,1)"><path fill="#ffffff" stroke="none" d="M 290 288 L 414 288 Q 424 288 424 298 L 424 331 Q 424 341 414 341 L 290 341 Q 280 341 280 331 L 280 298 Q 280 288 290 288 Z"/></g><g transform="translate(-142,-278) scale(1,1)"><path fill="none" stroke="#000000" d="M 290 288 L 414 288 Q 424 288 424 298 L 424 331 Q 424 341 414 341 L 290 341 Q 280 341 280 331 L 280 298 Q 280 288 290 288 Z" stroke-miterlimit="10"/></g><g transform="translate(-142,-278) scale(1,1)"><g><path fill="none" stroke="none"/><text fill="#000000" stroke="none" font-family="Arial" font-size="13px" font-style="normal" font-weight="bold" text-decoration="none" x="297.44189453125" y="307.5">action to create file</text><text fill="#000000" stroke="none" font-family="Arial" font-size="13px" font-style="normal" font-weight="bold" text-decoration="none" x="329.240478515625" y="320.5">watcher</text></g></g><g transform="translate(-142,-278) scale(1,1)"><path fill="none" stroke="#000000" d="M 171 311 L 280 311" stroke-miterlimit="10"/></g><g transform="translate(-142,-278) scale(1,1)"><path fill="none" stroke="#000000" d="M 269.83732514237585 315.209517756016 L 280 311 L 269.83732514237585 306.790482243984" stroke-miterlimit="10"/></g><g transform="translate(-142,-278) scale(1,1)"><path fill="#C0C0C0" stroke="none" d="M 273 399 L 445 399 Q 455 399 455 409 L 455 442 Q 455 452 445 452 L 273 452 Q 263 452 263 442 L 263 409 Q 263 399 273 399 Z" opacity="0.2"/></g><g transform="translate(-142,-278) scale(1,1)"><path fill="#ffffff" stroke="none" d="M 266 392 L 438 392 Q 448 392 448 402 L 448 435 Q 448 445 438 445 L 266 445 Q 256 445 256 435 L 256 402 Q 256 392 266 392 Z"/></g><g transform="translate(-142,-278) scale(1,1)"><path fill="none" stroke="#000000" d="M 266 392 L 438 392 Q 448 392 448 402 L 448 435 Q 448 445 438 445 L 266 445 Q 256 445 256 435 L 256 402 Q 256 392 266 392 Z" stroke-miterlimit="10"/></g><g transform="translate(-142,-278) scale(1,1)"><g><path fill="none" stroke="none"/><text fill="#000000" stroke="none" font-family="Arial" font-size="13px" font-style="normal" font-weight="bold" text-decoration="none" x="274.67919921875" y="411.5">Generate initial hash for all</text><text fill="#000000" stroke="none" font-family="Arial" font-size="13px" font-style="normal" font-weight="bold" text-decoration="none" x="315.510498046875" y="424.5">files in folder</text></g></g><g transform="translate(-142,-278) scale(1,1)"><path fill="#C0C0C0" stroke="none" d="M 281 519 L 437 519 Q 447 519 447 529 L 447 562 Q 447 572 437 572 L 281 572 Q 271 572 271 562 L 271 529 Q 271 519 281 519 Z" opacity="0.2"/></g><g transform="translate(-142,-278) scale(1,1)"><path fill="#ffffff" stroke="none" d="M 274 512 L 430 512 Q 440 512 440 522 L 440 555 Q 440 565 430 565 L 274 565 Q 264 565 264 555 L 264 522 Q 264 512 274 512 Z"/></g><g transform="translate(-142,-278) scale(1,1)"><path fill="none" stroke="#000000" d="M 274 512 L 430 512 Q 440 512 440 522 L 440 555 Q 440 565 430 565 L 274 565 Q 264 565 264 555 L 264 522 Q 264 512 274 512 Z" stroke-miterlimit="10"/></g><g transform="translate(-142,-278) scale(1,1)"><g><path fill="none" stroke="none"/><text fill="#000000" stroke="none" font-family="Arial" font-size="13px" font-style="normal" font-weight="bold" text-decoration="none" x="291.922607421875" y="531.5">Watch for file system</text><text fill="#000000" stroke="none" font-family="Arial" font-size="13px" font-style="normal" font-weight="bold" text-decoration="none" x="294.906005859375" y="544.5">events on the folder</text></g></g><g transform="translate(-142,-278) scale(1,1)"><path fill="#C0C0C0" stroke="none" d="M 343 648.5 L 354.5 639 L 365 648.5 L 354.5 657 L 343 648.5" opacity="0.2"/></g><g transform="translate(-142,-278) scale(1,1)"><path fill="#ffffff" stroke="none" d="M 336 641 L 347 632 L 358 641 L 347 650 L 336 641"/></g><g transform="translate(-142,-278) scale(1,1)"><path fill="none" stroke="#000000" d="M 336 641 L 347 632 L 358 641 L 347 650 L 336 641 L 336 641" stroke-miterlimit="10"/></g><g transform="translate(-142,-278) scale(1,1)"><path fill="none" stroke="#000000" d="M 344 565 L 344 632" stroke-miterlimit="10"/></g><g transform="translate(-142,-278) scale(1,1)"><path fill="none" stroke="#000000" d="M 339.790482243984 621.8373251423759 L 344 632 L 348.209517756016 621.8373251423759" stroke-miterlimit="10"/></g><g transform="translate(-142,-278) scale(1,1)"><g><path fill="none" stroke="none"/><text fill="#000000" stroke="none" font-family="Arial" font-size="13px" font-style="normal" font-weight="normal" text-decoration="none" x="349.5" y="599.5"> [is CRUD event]</text></g></g><g transform="translate(-142,-278) scale(1,1)"><path fill="#ffffff" stroke="none" d="M 208 568 L 314 568 L 324 578 L 324 630 L 208 630 L 208 568"/></g><g transform="translate(-142,-278) scale(1,1)"><path fill="none" stroke="#000000" d="M 208 568 L 314 568 L 324 578 L 324 630 L 208 630 L 208 568 L 208 568" stroke-miterlimit="10"/></g><g transform="translate(-142,-278) scale(1,1)"><path fill="none" stroke="#000000" d="M 314 568 L 314 578 L 324 578 L 314 568" stroke-miterlimit="10"/></g><g transform="translate(-142,-278) scale(1,1)"><g><path fill="none" stroke="none"/><text fill="#000000" stroke="none" font-family="Arial" font-size="13px" font-style="normal" font-weight="normal" text-decoration="none" x="213" y="586">CRUD stands for</text><text fill="#000000" stroke="none" font-family="Arial" font-size="13px" font-style="normal" font-weight="normal" text-decoration="none" x="213" y="599">Create, Read,</text><text fill="#000000" stroke="none" font-family="Arial" font-size="13px" font-style="normal" font-weight="normal" text-decoration="none" x="213" y="612">Update, Delete</text></g></g><g transform="translate(-142,-278) scale(1,1)"><path fill="#C0C0C0" stroke="none" d="M 289 703 L 437 703 Q 447 703 447 713 L 447 759 Q 447 769 437 769 L 289 769 Q 279 769 279 759 L 279 713 Q 279 703 289 703 Z" opacity="0.2"/></g><g transform="translate(-142,-278) scale(1,1)"><path fill="#ffffff" stroke="none" d="M 282 696 L 430 696 Q 440 696 440 706 L 440 752 Q 440 762 430 762 L 282 762 Q 272 762 272 752 L 272 706 Q 272 696 282 696 Z"/></g><g transform="translate(-142,-278) scale(1,1)"><path fill="none" stroke="#000000" d="M 282 696 L 430 696 Q 440 696 440 706 L 440 752 Q 440 762 430 762 L 282 762 Q 272 762 272 752 L 272 706 Q 272 696 282 696 Z" stroke-miterlimit="10"/></g><g transform="translate(-142,-278) scale(1,1)"><g><path fill="none" stroke="none"/><text fill="#000000" stroke="none" font-family="Arial" font-size="13px" font-style="normal" font-weight="bold" text-decoration="none" x="286.261474609375" y="715.5">Generate and store new</text><text fill="#000000" stroke="none" font-family="Arial" font-size="13px" font-style="normal" font-weight="bold" text-decoration="none" x="298.9091796875" y="728.5">hash for the file that</text><text fill="#000000" stroke="none" font-family="Arial" font-size="13px" font-style="normal" font-weight="bold" text-decoration="none" x="331.06005859375" y="741.5">changed</text></g></g><g transform="translate(-142,-278) scale(1,1)"><path fill="none" stroke="#000000" d="M 352 341 L 352 392" stroke-miterlimit="10"/></g><g transform="translate(-142,-278) scale(1,1)"><path fill="none" stroke="#000000" d="M 347.790482243984 381.83732514237585 L 352 392 L 356.209517756016 381.83732514237585" stroke-miterlimit="10"/></g><g transform="translate(-142,-278) scale(1,1)"><path fill="none" stroke="#000000" d="M 350 445 L 350 512" stroke-miterlimit="10"/></g><g transform="translate(-142,-278) scale(1,1)"><path fill="none" stroke="#000000" d="M 345.790482243984 501.83732514237585 L 350 512 L 354.209517756016 501.83732514237585" stroke-miterlimit="10"/></g><g transform="translate(-142,-278) scale(1,1)"><path fill="none" stroke="#000000" d="M 347 650 L 347 696" stroke-miterlimit="10"/></g><g transform="translate(-142,-278) scale(1,1)"><path fill="none" stroke="#000000" d="M 342.790482243984 685.8373251423759 L 347 696 L 351.209517756016 685.8373251423759" stroke-miterlimit="10"/></g><g transform="translate(-142,-278) scale(1,1)"><g><path fill="none" stroke="none"/><text fill="#000000" stroke="none" font-family="Arial" font-size="13px" font-style="normal" font-weight="normal" text-decoration="none" x="344.5" y="678.5"> [true]</text></g></g><g transform="translate(-142,-278) scale(1,1)"><path fill="#C0C0C0" stroke="none" d="M 513 631 L 552 631 Q 562 631 562 641 L 562 661 Q 562 671 552 671 L 513 671 Q 503 671 503 661 L 503 641 Q 503 631 513 631 Z" opacity="0.2"/></g><g transform="translate(-142,-278) scale(1,1)"><path fill="#ffffff" stroke="none" d="M 506 624 L 545 624 Q 555 624 555 634 L 555 654 Q 555 664 545 664 L 506 664 Q 496 664 496 654 L 496 634 Q 496 624 506 624 Z"/></g><g transform="translate(-142,-278) scale(1,1)"><path fill="none" stroke="#000000" d="M 506 624 L 545 624 Q 555 624 555 634 L 555 654 Q 555 664 545 664 L 506 664 Q 496 664 496 654 L 496 634 Q 496 624 506 624 Z" stroke-miterlimit="10"/></g><g transform="translate(-142,-278) scale(1,1)"><g><path fill="none" stroke="none"/><text fill="#000000" stroke="none" font-family="Arial" font-size="13px" font-style="normal" font-weight="bold" text-decoration="none" x="507.431396484375" y="643.5">ignore</text></g></g><g transform="translate(-142,-278) scale(1,1)"><path fill="none" stroke="#000000" d="M 358 643 L 496 643" stroke-miterlimit="10"/></g><g transform="translate(-142,-278) scale(1,1)"><path fill="none" stroke="#000000" d="M 485.83732514237585 647.209517756016 L 496 643 L 485.83732514237585 638.790482243984" stroke-miterlimit="10"/></g><g transform="translate(-142,-278) scale(1,1)"><g><path fill="none" stroke="none"/><text fill="#000000" stroke="none" font-family="Arial" font-size="13px" font-style="normal" font-weight="normal" text-decoration="none" x="407.5" y="634.5"> [false]</text></g></g><g transform="translate(-142,-278) scale(1,1)"><path fill="none" stroke="#000000" d="M 512 624 L 512 544 M 512 544 A 8 8 0 0 0 504 536 L 440 536" stroke-miterlimit="10"/></g><g transform="translate(-142,-278) scale(1,1)"><path fill="none" stroke="#000000" d="M 450.16267485762415 531.790482243984 L 440 536 L 450.16267485762415 540.209517756016" stroke-miterlimit="10"/></g><g transform="translate(-142,-278) scale(1,1)"><path fill="#C0C0C0" stroke="none" d="M 673 623 L 779.0126953125 623 Q 789.0126953125 623 789.0126953125 633 L 789.0126953125 653 Q 789.0126953125 663 779.0126953125 663 L 673 663 Q 663 663 663 653 L 663 633 Q 663 623 673 623 Z" opacity="0.2"/></g><g transform="translate(-142,-278) scale(1,1)"><path fill="#ffffff" stroke="none" d="M 666 616 L 772.0126953125 616 Q 782.0126953125 616 782.0126953125 626 L 782.0126953125 646 Q 782.0126953125 656 772.0126953125 656 L 666 656 Q 656 656 656 646 L 656 626 Q 656 616 666 616 Z"/></g><g transform="translate(-142,-278) scale(1,1)"><path fill="none" stroke="#000000" d="M 666 616 L 772.0126953125 616 Q 782.0126953125 616 782.0126953125 626 L 782.0126953125 646 Q 782.0126953125 656 772.0126953125 656 L 666 656 Q 656 656 656 646 L 656 626 Q 656 616 666 616 Z" stroke-miterlimit="10"/></g><g transform="translate(-142,-278) scale(1,1)"><g><path fill="none" stroke="none"/><text fill="#000000" stroke="none" font-family="Arial" font-size="13px" font-style="normal" font-weight="bold" text-decoration="none" x="665.530517578125" y="635.5">Keyboard interrupt</text></g></g><g transform="translate(-142,-278) scale(1,1)"><path fill="#C0C0C0" stroke="none" d="M 831 643.5 C 831 636.59644 836.59644 631 843.5 631 C 850.40356 631 856 636.59644 856 643.5 C 856 650.40356 850.40356 656 843.5 656 C 836.59644 656 831 650.40356 831 643.5 Z" opacity="0.2"/></g><g transform="translate(-142,-278) scale(1,1)"><path fill="none" stroke="#000000" d="M 824 636.5 C 824 629.59644 829.59644 624 836.5 624 C 843.40356 624 849 629.59644 849 636.5 C 849 643.40356 843.40356 649 836.5 649 C 829.59644 649 824 643.40356 824 636.5 Z" stroke-miterlimit="10"/></g><g transform="translate(-142,-278) scale(1,1)"><path fill="#000000" stroke="none" d="M 829 636.5 C 829 632.357864 832.357864 629 836.5 629 C 840.642136 629 844 632.357864 844 636.5 C 844 640.642136 840.642136 644 836.5 644 C 832.357864 644 829 640.642136 829 636.5 Z"/></g><g transform="translate(-142,-278) scale(1,1)"><path fill="#C0C0C0" stroke="none" d="M 479 767 L 617.40087890625 767 L 617.40087890625 807 L 479 807 L 489.25 787.5" opacity="0.2"/></g><g transform="translate(-142,-278) scale(1,1)"><path fill="#ffffff" stroke="none" d="M 472 760 L 610.40087890625 760 L 610.40087890625 800 L 472 800 L 482.25 780.5"/></g><g transform="translate(-142,-278) scale(1,1)"><path fill="none" stroke="#000000" d="M 472 760 L 610.40087890625 760 L 610.40087890625 800 L 472 800 L 482.25 780.5 L 472 760" stroke-miterlimit="10"/></g><g transform="translate(-142,-278) scale(1,1)"><g><path fill="none" stroke="none"/><text fill="#000000" stroke="none" font-family="Arial" font-size="13px" font-style="normal" font-weight="bold" text-decoration="none" x="489.168701171875" y="779.5">KeyboardInterrupt</text></g></g><g transform="translate(-142,-278) scale(1,1)"><path fill="none" stroke="#000000" d="M 610 780 L 720 780 L 720 656" stroke-miterlimit="10"/></g><g transform="translate(-142,-278) scale(1,1)"><path fill="none" stroke="#000000" d="M 724.209517756016 666.1626748576241 L 720 656 L 715.790482243984 666.1626748576241" stroke-miterlimit="10"/></g><g transform="translate(-142,-278) scale(1,1)"><path fill="none" stroke="#000000" d="M 688 750 L 712 750" stroke-miterlimit="10"/></g><g transform="translate(-142,-278) scale(1,1)"><path fill="none" stroke="#000000" d="M 712 750 L 688 764" stroke-miterlimit="10"/></g><g transform="translate(-142,-278) scale(1,1)"><path fill="none" stroke="#000000" d="M 688 764 L 712 764" stroke-miterlimit="10"/></g><g transform="translate(-142,-278) scale(1,1)"><path fill="none" stroke="#000000" d="M 712 764 L 707 769" stroke-miterlimit="10"/></g><g transform="translate(-142,-278) scale(1,1)"><path fill="none" stroke="#000000" d="M 712 764 L 707 759" stroke-miterlimit="10"/></g><g transform="translate(-142,-278) scale(1,1)"><path fill="none" stroke="#000000" d="M 782 636 L 824 636" stroke-miterlimit="10"/></g><g transform="translate(-142,-278) scale(1,1)"><path fill="none" stroke="#000000" d="M 813.8373251423759 640.209517756016 L 824 636 L 813.8373251423758 631.790482243984" stroke-miterlimit="10"/></g><g transform="translate(-142,-278) scale(1,1)"><path fill="none" stroke="#000000" d="M 272 728 L 184 728 M 184 728 A 8 8 0 0 1 176 720 L 176 544 M 176 544 A 8 8 0 0 1 184 536 L 264 536" stroke-miterlimit="10"/></g><g transform="translate(-142,-278) scale(1,1)"><path fill="none" stroke="#000000" d="M 253.83732514237585 540.209517756016 L 264 536 L 253.83732514237585 531.790482243984" stroke-miterlimit="10"/></g><g transform="translate(-142,-278) scale(1,1)"><path fill="#ffffff" stroke="none" d="M 632 504 L 813 504 L 823 514 L 823 592 L 632 592 L 632 504"/></g><g transform="translate(-142,-278) scale(1,1)"><path fill="none" stroke="#000000" d="M 632 504 L 813 504 L 823 514 L 823 592 L 632 592 L 632 504 L 632 504" stroke-miterlimit="10"/></g><g transform="translate(-142,-278) scale(1,1)"><path fill="none" stroke="#000000" d="M 813 504 L 813 514 L 823 514 L 813 504" stroke-miterlimit="10"/></g><g transform="translate(-142,-278) scale(1,1)"><g><path fill="none" stroke="none"/><text fill="#000000" stroke="none" font-family="Arial" font-size="13px" font-style="normal" font-weight="normal" text-decoration="none" x="637" y="522">Once started the file watcher</text><text fill="#000000" stroke="none" font-family="Arial" font-size="13px" font-style="normal" font-weight="normal" text-decoration="none" x="637" y="535">continues to listen for changes</text><text fill="#000000" stroke="none" font-family="Arial" font-size="13px" font-style="normal" font-weight="normal" text-decoration="none" x="637" y="548">and does not stop until a</text><text fill="#000000" stroke="none" font-family="Arial" font-size="13px" font-style="normal" font-weight="normal" text-decoration="none" x="637" y="561">manual keyboard interrupt is</text><text fill="#000000" stroke="none" font-family="Arial" font-size="13px" font-style="normal" font-weight="normal" text-decoration="none" x="637" y="574">triggered (CTRL + c)</text></g></g></g></svg>