<svg version="1.1" xmlns="http://www.w3.org/2000/svg" xmlns:xlink="http://www.w3.org/1999/xlink" width="516" height="394"><defs/><g><text fill="#eeeeee" stroke="none" font-family="Arial" font-size="24px" font-style="normal" font-weight="normal" text-decoration="none" x="0" y="0"></text><text fill="#eeeeee" stroke="none" font-family="Arial" font-size="24px" font-style="normal" font-weight="normal" text-decoration="none" x="0" y="30"></text><text fill="#eeeeee" stroke="none" font-family="Arial" font-size="24px" font-style="normal" font-weight="normal" text-decoration="none" x="0" y="60"></text><text fill="#eeeeee" stroke="none" font-family="Arial" font-size="24px" font-style="normal" font-weight="normal" text-decoration="none" x="0" y="90"></text><text fill="#eeeeee" stroke="none" font-family="Arial" font-size="24px" font-style="normal" font-weight="normal" text-decoration="none" x="0" y="120"></text><text fill="#eeeeee" stroke="none" font-family="Arial" font-size="24px" font-style="normal" font-weight="normal" text-decoration="none" x="0" y="150"></text><text fill="#eeeeee" stroke="none" font-family="Arial" font-size="24px" font-style="normal" font-weight="normal" text-decoration="none" x="0" y="180"></text><text fill="#eeeeee" stroke="none" font-family="Arial" font-size="24px" font-style="normal" font-weight="normal" text-decoration="none" x="0" y="210"></text><text fill="#eeeeee" stroke="none" font-family="Arial" font-size="24px" font-style="normal" font-weight="normal" text-decoration="none" x="0" y="240"></text><text fill="#eeeeee" stroke="none" font-family="Arial" font-size="24px" font-style="normal" font-weight="normal" text-decoration="none" x="0" y="270"></text><text fill="#eeeeee" stroke="none" font-family="Arial" font-size="24px" font-style="normal" font-weight="normal" text-decoration="none" x="0" y="300"></text><text fill="#eeeeee" stroke="none" font-family="Arial" font-size="24px" font-style="normal" font-weight="normal" text-decoration="none" x="0" y="330"></text><text fill="#eeeeee" stroke="none" font-family="Arial" font-size="24px" font-style="normal" font-weight="normal" text-decoration="none" x="0" y="360"></text><text fill="#eeeeee" stroke="none" font-family="Arial" font-size="24px" font-style="normal" font-weight="normal" text-decoration="none" x="0" y="390"></text><text fill="#eeeeee" stroke="none" font-family="Arial" font-size="24px" font-style="normal" font-weight="normal" text-decoration="none" x="200" y="0"></text><text fill="#eeeeee" stroke="none" font-family="Arial" font-size="24px" font-style="normal" font-weight="normal" text-decoration="none" x="200" y="30"></text><text fill="#eeeeee" stroke="none" font-family="Arial" font-size="24px" font-style="normal" font-weight="normal" text-decoration="none" x="200" y="60"></text><text fill="#eeeeee" stroke="none" font-family="Arial" font-size="24px" font-style="normal" font-weight="normal" text-decoration="none" x="200" y="90"></text><text fill="#eeeeee" stroke="none" font-family="Arial" font-size="24px" font-style="normal" font-weight="normal" text-decoration="none" x="200" y="120"></text><text fill="#eeeeee" stroke="none" font-family="Arial" font-size="24px" font-style="normal" font-weight="normal" text-decoration="none" x="200" y="150"></text><text fill="#eeeeee" stroke="none" font-family="Arial" font-size="24px" font-style="normal" font-weight="normal" text-decoration="none" x="200" y="180"></text><text fill="#eeeeee" stroke="none" font-family="Arial" font-size="24px" font-style="normal" font-weight="normal" text-decoration="none" x="200" y="210"></text><text fill="#eeeeee" stroke="none" font-family="Arial" font-size="24px" font-style="normal" font-weight="normal" text-decoration="none" x="200" y="240"></text><text fill="#eeeeee" stroke="none" font-family="Arial" font-size="24px" font-style="normal" font-weight="normal" text-decoration="none" x="200" y="270"></text><text fill="#eeeeee" stroke="none" font-family="Arial" font-size="24px" font-style="normal" font-weight="normal" text-decoration="none" x="200" y="300"></text><text fill="#eeeeee" stroke="none" font-family="Arial" font-size="24px" font-style="normal" font-weight="normal" text-decoration="none" x="200" y="330"></text><text fill="#eeeeee" stroke="none" font-family="Arial" font-size="24px" font-style="normal" font-weight="normal" text-decoration="none" x="200" y="360"></text><text fill="#eeeeee" stroke="none" font-family="Arial" font-size="24px" font-style="normal" font-weight="normal" text-decoration="none" x="200" y="390"></text><text fill="#eeeeee" stroke="none" font-family="Arial" font-size="24px" font-style="normal" font-weight="normal" text-decoration="none" x="400" y="0"></text><text fill="#eeeeee" stroke="none" font-family="Arial" font-size="24px" font-style="normal" font-weight="normal" text-decoration="none" x="400" y="30"></text><text fill="#eeeeee" stroke="none" font-family="Arial" font-size="24px" font-style="normal" font-weight="normal" text-decoration="none" x="400" y="60"></text><text fill="#eeeeee" stroke="none" font-family="Arial" font-size="24px" font-style="normal" font-weight="normal" text-decoration="none" x="400" y="90"></text><text fill="#eeeeee" stroke="none" font-family="Arial" font-size="24px" font-style="normal" font-weight="normal" text-decoration="none" x="400" y="120"></text><text fill="#eeeeee" stroke="none" font-family="Arial" font-size="24px" font-style="normal" font-weight="normal" text-decoration="none" x="400" y="150"></text><text fill="#eeeeee" stroke="none" font-family="Arial" font-size="24px" font-style="normal" font-weight="normal" text-decoration="none" x="400" y="180"></text><text fill="#eeeeee" stroke="none" font-family="Arial" font-size="24px" font-style="normal" font-weight="normal" text-decoration="none" x="400" y="210"></text><text fill="#eeeeee" stroke="none" font-family="Arial" font-size="24px" font-style="normal" font-weight="normal" text-decoration="none" x="400" y="240"></text><text fill="#eeeeee" stroke="none" font-family="Arial" font-size="24px" font-style="normal" font-weight="normal" text-decoration="none" x="400" y="270"></text><text fill="#eeeeee" stroke="none" font-family="Arial" font-size="24px" font-style="normal" font-weight="normal" text-decoration="none" x="400" y="300"></text><text fill="#eeeeee" stroke="none" font-family="Arial" font-size="24px" font-style="normal" font-weight="normal" text-decoration="none" x="400" y="330"></text><text fill="#eeeeee" stroke="none" font-family="Arial" font-size="24px" font-style="normal" font-weight="normal" text-decoration="none" x="400" y="360"></text><text fill="#eeeeee" stroke="none" font-family="Arial" font-size="24px" font-style="normal" font-weight="normal" text-decoration="none" x="400" y="390"></text><g transform="translate(-14,10) scale(1,1)"><path fill="#C0C0C0" stroke="none" d="M 41 87 L 134.736328125 87 Q 144.736328125 87 144.736328125 97 L 144.736328125 117 Q 144.736328125 127 134.736328125 127 L 41 127 Q 31 127 31 117 L 31 97 Q 31 87 41 87 Z" opacity="0.2"/></g><g transform="translate(-14,10) scale(1,1)"><path fill="#ffffff" stroke="none" d="M 34 80 L 127.736328125 80 Q 137.736328125 80 137.736328125 90 L 137.736328125 110 Q 137.736328125 120 127.736328125 120 L 34 120 Q 24 120 24 110 L 24 90 Q 24 80 34 80 Z"/></g><g transform="translate(-14,10) scale(1,1)"><path fill="none" stroke="#000000" d="M 34 80 L 127.736328125 80 Q 137.736328125 80 137.736328125 90 L 137.736328125 110 Q 137.736328125 120 127.736328125 120 L 34 120 Q 24 120 24 110 L 24 90 Q 24 80 34 80 Z" stroke-miterlimit="10"/></g><g transform="translate(-14,10) scale(1,1)"><g><path fill="none" stroke="none"/><text fill="#000000" stroke="none" font-family="Arial" font-size="13px" font-style="normal" font-weight="bold" text-decoration="none" x="32.81005859375" y="99.5">Execute function</text></g></g><g transform="translate(-14,10) scale(1,1)"><path fill="#C0C0C0" stroke="none" d="M 79 48.5 C 79 43.2532944 83.2532944 39 88.5 39 C 93.7467056 39 98 43.2532944 98 48.5 C 98 53.7467056 93.7467056 58 88.5 58 C 83.2532944 58 79 53.7467056 79 48.5 Z" opacity="0.2"/></g><g transform="translate(-14,10) scale(1,1)"><path fill="#000000" stroke="none" d="M 72 41.5 C 72 36.2532944 76.2532944 32 81.5 32 C 86.7467056 32 91 36.2532944 91 41.5 C 91 46.7467056 86.7467056 51 81.5 51 C 76.2532944 51 72 46.7467056 72 41.5 Z"/></g><g transform="translate(-14,10) scale(1,1)"><path fill="#C0C0C0" stroke="none" d="M 49 263 L 116.74267578125 263 Q 126.74267578125 263 126.74267578125 273 L 126.74267578125 293 Q 126.74267578125 303 116.74267578125 303 L 49 303 Q 39 303 39 293 L 39 273 Q 39 263 49 263 Z" opacity="0.2"/></g><g transform="translate(-14,10) scale(1,1)"><path fill="#ffffff" stroke="none" d="M 42 256 L 109.74267578125 256 Q 119.74267578125 256 119.74267578125 266 L 119.74267578125 286 Q 119.74267578125 296 109.74267578125 296 L 42 296 Q 32 296 32 286 L 32 266 Q 32 256 42 256 Z"/></g><g transform="translate(-14,10) scale(1,1)"><path fill="none" stroke="#000000" d="M 42 256 L 109.74267578125 256 Q 119.74267578125 256 119.74267578125 266 L 119.74267578125 286 Q 119.74267578125 296 109.74267578125 296 L 42 296 Q 32 296 32 286 L 32 266 Q 32 256 42 256 Z" stroke-miterlimit="10"/></g><g transform="translate(-14,10) scale(1,1)"><g><path fill="none" stroke="none"/><text fill="#000000" stroke="none" font-family="Arial" font-size="13px" font-style="normal" font-weight="bold" text-decoration="none" x="39.016845703125" y="275.5">Return value</text></g></g><g transform="translate(-14,10) scale(1,1)"><path fill="#C0C0C0" stroke="none" d="M 71 211.5 L 86.5 199 L 101 211.5 L 86.5 223 L 71 211.5" opacity="0.2"/></g><g transform="translate(-14,10) scale(1,1)"><path fill="#ffffff" stroke="none" d="M 64 204 L 79 192 L 94 204 L 79 216 L 64 204"/></g><g transform="translate(-14,10) scale(1,1)"><path fill="none" stroke="#000000" d="M 64 204 L 79 192 L 94 204 L 79 216 L 64 204 L 64 204" stroke-miterlimit="10"/></g><g transform="translate(-14,10) scale(1,1)"><path fill="none" stroke="#000000" d="M 79 120 L 79 192" stroke-miterlimit="10"/></g><g transform="translate(-14,10) scale(1,1)"><path fill="none" stroke="#000000" d="M 74.79048224398402 181.83732514237585 L 79 192 L 83.20951775601598 181.83732514237585" stroke-miterlimit="10"/></g><g transform="translate(-14,10) scale(1,1)"><g><path fill="none" stroke="none"/><text fill="#000000" stroke="none" font-family="Arial" font-size="13px" font-style="normal" font-weight="normal" text-decoration="none" x="87.5" y="148.5">has return value</text></g></g><g transform="translate(-14,10) scale(1,1)"><path fill="#C0C0C0" stroke="none" d="M 191 211.5 C 191 204.59644 196.59644 199 203.5 199 C 210.40356 199 216 204.59644 216 211.5 C 216 218.40356 210.40356 224 203.5 224 C 196.59644 224 191 218.40356 191 211.5 Z" opacity="0.2"/></g><g transform="translate(-14,10) scale(1,1)"><path fill="none" stroke="#000000" d="M 184 204.5 C 184 197.59644 189.59644 192 196.5 192 C 203.40356 192 209 197.59644 209 204.5 C 209 211.40356 203.40356 217 196.5 217 C 189.59644 217 184 211.40356 184 204.5 Z" stroke-miterlimit="10"/></g><g transform="translate(-14,10) scale(1,1)"><path fill="#000000" stroke="none" d="M 189 204.5 C 189 200.357864 192.357864 197 196.5 197 C 200.642136 197 204 200.357864 204 204.5 C 204 208.642136 200.642136 212 196.5 212 C 192.357864 212 189 208.642136 189 204.5 Z"/></g><g transform="translate(-14,10) scale(1,1)"><path fill="none" stroke="#000000" d="M 94 204 L 184 204" stroke-miterlimit="10"/></g><g transform="translate(-14,10) scale(1,1)"><path fill="none" stroke="#000000" d="M 173.83732514237585 208.209517756016 L 184 204 L 173.83732514237585 199.790482243984" stroke-miterlimit="10"/></g><g transform="translate(-14,10) scale(1,1)"><g><path fill="none" stroke="none"/><text fill="#000000" stroke="none" font-family="Arial" font-size="13px" font-style="normal" font-weight="normal" text-decoration="none" x="126.5" y="195.5"> [no]</text></g></g><g transform="translate(-14,10) scale(1,1)"><path fill="none" stroke="#000000" d="M 78 216 L 78 256" stroke-miterlimit="10"/></g><g transform="translate(-14,10) scale(1,1)"><path fill="none" stroke="#000000" d="M 73.79048224398402 245.83732514237585 L 78 256 L 82.20951775601598 245.83732514237585" stroke-miterlimit="10"/></g><g transform="translate(-14,10) scale(1,1)"><g><path fill="none" stroke="none"/><text fill="#000000" stroke="none" font-family="Arial" font-size="13px" font-style="normal" font-weight="normal" text-decoration="none" x="76.5" y="241.5"> [yes]</text></g></g><g transform="translate(-14,10) scale(1,1)"><path fill="none" stroke="#000000" d="M 120 276 L 196 276 L 196 217" stroke-miterlimit="10"/></g><g transform="translate(-14,10) scale(1,1)"><path fill="none" stroke="#000000" d="M 200.209517756016 227.16267485762415 L 196 217 L 191.790482243984 227.16267485762415" stroke-miterlimit="10"/></g><g transform="translate(-14,10) scale(1,1)"><path fill="#C0C0C0" stroke="none" d="M 383 48.5 C 383 43.2532944 387.2532944 39 392.5 39 C 397.7467056 39 402 43.2532944 402 48.5 C 402 53.7467056 397.7467056 58 392.5 58 C 387.2532944 58 383 53.7467056 383 48.5 Z" opacity="0.2"/></g><g transform="translate(-14,10) scale(1,1)"><path fill="#000000" stroke="none" d="M 376 41.5 C 376 36.2532944 380.2532944 32 385.5 32 C 390.7467056 32 395 36.2532944 395 41.5 C 395 46.7467056 390.7467056 51 385.5 51 C 380.2532944 51 376 46.7467056 376 41.5 Z"/></g><g transform="translate(-14,10) scale(1,1)"><path fill="none" stroke="#000000" d="M 81 51 L 81 80" stroke-miterlimit="10"/></g><g transform="translate(-14,10) scale(1,1)"><path fill="none" stroke="#000000" d="M 76.79048224398402 69.83732514237585 L 81 80 L 85.20951775601598 69.83732514237585" stroke-miterlimit="10"/></g><g transform="translate(-14,10) scale(1,1)"><path fill="#C0C0C0" stroke="none" d="M 337 95 L 453 95 Q 463 95 463 105 L 463 138 Q 463 148 453 148 L 337 148 Q 327 148 327 138 L 327 105 Q 327 95 337 95 Z" opacity="0.2"/></g><g transform="translate(-14,10) scale(1,1)"><path fill="#ffffff" stroke="none" d="M 330 88 L 446 88 Q 456 88 456 98 L 456 131 Q 456 141 446 141 L 330 141 Q 320 141 320 131 L 320 98 Q 320 88 330 88 Z"/></g><g transform="translate(-14,10) scale(1,1)"><path fill="none" stroke="#000000" d="M 330 88 L 446 88 Q 456 88 456 98 L 456 131 Q 456 141 446 141 L 330 141 Q 320 141 320 131 L 320 98 Q 320 88 330 88 Z" stroke-miterlimit="10"/></g><g transform="translate(-14,10) scale(1,1)"><g><path fill="none" stroke="none"/><text fill="#000000" stroke="none" font-family="Arial" font-size="13px" font-style="normal" font-weight="bold" text-decoration="none" x="334.8828125" y="107.5">Execute generator</text><text fill="#000000" stroke="none" font-family="Arial" font-size="13px" font-style="normal" font-weight="bold" text-decoration="none" x="365.234130859375" y="120.5">function</text></g></g><g transform="translate(-14,10) scale(1,1)"><path fill="#C0C0C0" stroke="none" d="M 361 183 L 417.4375 183 Q 427.4375 183 427.4375 193 L 427.4375 213 Q 427.4375 223 417.4375 223 L 361 223 Q 351 223 351 213 L 351 193 Q 351 183 361 183 Z" opacity="0.2"/></g><g transform="translate(-14,10) scale(1,1)"><path fill="#ffffff" stroke="none" d="M 354 176 L 410.4375 176 Q 420.4375 176 420.4375 186 L 420.4375 206 Q 420.4375 216 410.4375 216 L 354 216 Q 344 216 344 206 L 344 186 Q 344 176 354 176 Z"/></g><g transform="translate(-14,10) scale(1,1)"><path fill="none" stroke="#000000" d="M 354 176 L 410.4375 176 Q 420.4375 176 420.4375 186 L 420.4375 206 Q 420.4375 216 410.4375 216 L 354 216 Q 344 216 344 206 L 344 186 Q 344 176 354 176 Z" stroke-miterlimit="10"/></g><g transform="translate(-14,10) scale(1,1)"><g><path fill="none" stroke="none"/><text fill="#000000" stroke="none" font-family="Arial" font-size="13px" font-style="normal" font-weight="bold" text-decoration="none" x="350.661376953125" y="195.5">Yield value</text></g></g><g transform="translate(-14,10) scale(1,1)"><path fill="#C0C0C0" stroke="none" d="M 375 299.5 L 390.5 287 L 405 299.5 L 390.5 311 L 375 299.5" opacity="0.2"/></g><g transform="translate(-14,10) scale(1,1)"><path fill="#ffffff" stroke="none" d="M 368 292 L 383 280 L 398 292 L 383 304 L 368 292"/></g><g transform="translate(-14,10) scale(1,1)"><path fill="none" stroke="#000000" d="M 368 292 L 383 280 L 398 292 L 383 304 L 368 292 L 368 292" stroke-miterlimit="10"/></g><g transform="translate(-14,10) scale(1,1)"><path fill="none" stroke="#000000" d="M 383 216 L 383 280" stroke-miterlimit="10"/></g><g transform="translate(-14,10) scale(1,1)"><path fill="none" stroke="#000000" d="M 378.790482243984 269.83732514237585 L 383 280 L 387.209517756016 269.83732514237585" stroke-miterlimit="10"/></g><g transform="translate(-14,10) scale(1,1)"><g><path fill="none" stroke="none"/><text fill="#000000" stroke="none" font-family="Arial" font-size="13px" font-style="normal" font-weight="normal" text-decoration="none" x="389.5" y="250.5">has next yield</text></g></g><g transform="translate(-14,10) scale(1,1)"><path fill="#C0C0C0" stroke="none" d="M 479 299.5 C 479 292.59644 484.59644 287 491.5 287 C 498.40356 287 504 292.59644 504 299.5 C 504 306.40356 498.40356 312 491.5 312 C 484.59644 312 479 306.40356 479 299.5 Z" opacity="0.2"/></g><g transform="translate(-14,10) scale(1,1)"><path fill="none" stroke="#000000" d="M 472 292.5 C 472 285.59644 477.59644 280 484.5 280 C 491.40356 280 497 285.59644 497 292.5 C 497 299.40356 491.40356 305 484.5 305 C 477.59644 305 472 299.40356 472 292.5 Z" stroke-miterlimit="10"/></g><g transform="translate(-14,10) scale(1,1)"><path fill="#000000" stroke="none" d="M 477 292.5 C 477 288.357864 480.357864 285 484.5 285 C 488.642136 285 492 288.357864 492 292.5 C 492 296.642136 488.642136 300 484.5 300 C 480.357864 300 477 296.642136 477 292.5 Z"/></g><g transform="translate(-14,10) scale(1,1)"><path fill="none" stroke="#000000" d="M 389 141 L 389 176" stroke-miterlimit="10"/></g><g transform="translate(-14,10) scale(1,1)"><path fill="none" stroke="#000000" d="M 384.790482243984 165.83732514237585 L 389 176 L 393.209517756016 165.83732514237585" stroke-miterlimit="10"/></g><g transform="translate(-14,10) scale(1,1)"><path fill="none" stroke="#000000" d="M 398 292 L 472 292" stroke-miterlimit="10"/></g><g transform="translate(-14,10) scale(1,1)"><path fill="none" stroke="#000000" d="M 461.83732514237585 296.209517756016 L 472 292 L 461.83732514237585 287.790482243984" stroke-miterlimit="10"/></g><g transform="translate(-14,10) scale(1,1)"><g><path fill="none" stroke="none"/><text fill="#000000" stroke="none" font-family="Arial" font-size="13px" font-style="normal" font-weight="normal" text-decoration="none" x="422.5" y="283.5"> [no]</text></g></g><g transform="translate(-14,10) scale(1,1)"><path fill="none" stroke="#000000" d="M 368 292 L 312 292 L 312 200 L 344 200" stroke-miterlimit="10"/></g><g transform="translate(-14,10) scale(1,1)"><path fill="none" stroke="#000000" d="M 333.83732514237585 204.209517756016 L 344 200 L 333.83732514237585 195.790482243984" stroke-miterlimit="10"/></g><g transform="translate(-14,10) scale(1,1)"><g><path fill="none" stroke="none"/><text fill="#000000" stroke="none" font-family="Arial" font-size="13px" font-style="normal" font-weight="normal" text-decoration="none" x="270.5" y="251.5"> [yes]</text></g></g><g transform="translate(-14,10) scale(1,1)"><path fill="none" stroke="#000000" d="M 386 51 L 386 88" stroke-miterlimit="10"/></g><g transform="translate(-14,10) scale(1,1)"><path fill="none" stroke="#000000" d="M 381.790482243984 77.83732514237585 L 386 88 L 390.209517756016 77.83732514237585" stroke-miterlimit="10"/></g><g transform="translate(-14,10) scale(1,1)"><g><path fill="none" stroke="none"/><text fill="#000000" stroke="none" font-family="Arial" font-size="22px" font-style="normal" font-weight="normal" text-decoration="none" x="29" y="355">Normal function</text></g></g><g transform="translate(-14,10) scale(1,1)"><g><path fill="none" stroke="none"/><text fill="#000000" stroke="none" font-family="Arial" font-size="22px" font-style="normal" font-weight="normal" text-decoration="none" x="309" y="355">Generator function</text></g></g><g transform="translate(-14,10) scale(1,1)"><path fill="none" stroke="#000000" d="M 240 0 L 240 373" stroke-miterlimit="10"/></g></g></svg>